<svg>
    <symbol id="heart" viewBox="0 0 24 24" xmlns="http://www.w3.org/2000/svg">
        <path d="M2 9.1371C2 14 6.01943 16.5914 8.96173 18.9109C10 19.7294 11 20.5 12 20.5C13 20.5 14 19.7294 15.0383 18.9109C17.9806 16.5914 22 14 22 9.1371C22 4.27416 16.4998 0.825464 12 5.50063C7.50016 0.825464 2 4.27416 2 9.1371Z"/>
    </symbol>
    <symbol id="light" viewBox="0 0 15 15" fill="none" xmlns="http://www.w3.org/2000/svg">
        <path d="M7.7066 0.00274765C7.50391 -0.0027381 7.31797 0.114737 7.23588 0.300147C7.15379 0.485558 7.19181 0.702186 7.33213 0.848565C8.36577 1.92686 9.00015 3.3888 9.00015 4.99996C9.00015 8.31366 6.31385 11 3.00015 11C2.5757 11 2.16207 10.956 1.76339 10.8725C1.56489 10.8309 1.36094 10.9133 1.2471 11.0812C1.13325 11.249 1.13207 11.469 1.2441 11.638C2.58602 13.663 4.88682 15 7.50012 15C11.6423 15 15.0001 11.6421 15.0001 7.49996C15.0001 3.42688 11.7534 0.112271 7.7066 0.00274765Z"
              fill="var(--moon)"/>
    </symbol>
    <symbol id="dark" viewBox="0 0 16 16" fill="none" xmlns="http://www.w3.org/2000/svg">
        <path d="M7 3V0H9V3H7Z" fill="var(--sun)"/>
        <path d="M9 13V16H7V13H9Z" fill="var(--sun)"/>
        <path d="M11 8C11 9.65685 9.65685 11 8 11C6.34315 11 5 9.65685 5 8C5 6.34315 6.34315 5 8 5C9.65685 5 11 6.34315 11 8Z"
              fill="var(--sun)"/>
        <path d="M0 9H3V7H0V9Z" fill="var(--sun)"/>
        <path d="M16 7H13V9H16V7Z" fill="var(--sun)"/>
        <path d="M3.75735 5.17157L1.63603 3.05025L3.05025 1.63603L5.17157 3.75735L3.75735 5.17157Z" fill="var(--sun)"/>
        <path d="M12.2426 10.8284L14.364 12.9497L12.9497 14.364L10.8284 12.2426L12.2426 10.8284Z" fill="var(--sun)"/>
        <path d="M3.05025 14.364L5.17157 12.2426L3.75735 10.8284L1.63603 12.9498L3.05025 14.364Z" fill="var(--sun)"/>
        <path d="M12.9497 1.63604L10.8284 3.75736L12.2426 5.17158L14.364 3.05026L12.9497 1.63604Z" fill="var(--sun)"/>
    </symbol>



    <symbol id="panier" viewBox="0 0 24 24">
        <path d="M7 18c-1.1 0-1.99.9-1.99 2S5.9 22 7 22s2-.9 2-2-.9-2-2-2zM1 2v2h2l3.6 7.59-1.35 2.45c-.16.28-.25.61-.25.96 0 1.1.9 2 2 2h12v-2H7.42c-.14 0-.25-.11-.25-.25l.03-.12.9-1.63h7.45c.75 0 1.41-.41 1.75-1.03l3.58-6.49c.08-.14.12-.31.12-.48 0-.55-.45-1-1-1H5.21l-.94-2H1zm16 16c-1.1 0-1.99.9-1.99 2s.89 2 1.99 2 2-.9 2-2-.9-2-2-2z"/>
    </symbol>

    <!-- Icône profil -->
    <symbol id="profile" viewBox="0 0 24 24">
        <path d="M12 2C6.48 2 2 6.48 2 12s4.48 10 10 10 10-4.48 10-10S17.52 2 12 2zm0 3c1.66 0 3 1.34 3 3s-1.34 3-3 3-3-1.34-3-3 1.34-3 3-3zm0 14.2c-2.5 0-4.71-1.28-6-3.22.03-1.99 4-3.08 6-3.08 1.99 0 5.97 1.09 6 3.08-1.29 1.94-3.5 3.22-6 3.22z"/>
    </symbol>

    <!-- Icône mail -->
    <symbol id="mail" viewBox="0 0 24 24">
        <path d="M20 4H4c-1.1 0-1.99.9-1.99 2L2 18c0 1.1.9 2 2 2h16c1.1 0 2-.9 2-2V6c0-1.1-.9-2-2-2zm0 4l-8 5-8-5V6l8 5 8-5v2z"/>
    </symbol>

    <!-- Icône ajouter -->
    <symbol id="add" viewBox="0 0 24 24">
        <path d="M19 13h-6v6h-2v-6H5v-2h6V5h2v6h6v2z"/>
    </symbol>

    <!-- Icône menu -->
    <symbol id="menu" viewBox="0 0 24 24">
        <path d="M3 18h18v-2H3v2zm0-5h18v-2H3v2zm0-7v2h18V6H3z"/>
    </symbol>

    <!-- Icônes flèches slider -->
    <symbol id="arrow-left" viewBox="0 0 24 24">
        <path d="M15.41 7.41L14 6l-6 6 6 6 1.41-1.41L10.83 12z"/>
    </symbol>

    <symbol id="arrow-right" viewBox="0 0 24 24">
        <path d="M10 6L8.59 7.41 13.17 12l-4.58 4.59L10 18l6-6z"/>
    </symbol>
</svg>



